<svg xmlns="http://www.w3.org/2000/svg" viewBox="0 0 64 64">
  <defs>
    <linearGradient id="g" x1="10" x2="54" y1="8" y2="56" gradientUnits="userSpaceOnUse">
      <stop stop-color="#4F46E5"/>
      <stop offset=".52" stop-color="#7C3AED"/>
      <stop offset="1" stop-color="#22D3EE"/>
    </linearGradient>
  </defs>
  <rect width="64" height="64" rx="18" fill="url(#g)"/>
  <path d="M18 20.5A7.5 7.5 0 0 1 25.5 13H32v38h-6.5A7.5 7.5 0 0 1 18 43.5v-23Z" fill="none" stroke="white" stroke-width="4" stroke-linejoin="round"/>
  <path d="M32 13h6.5A7.5 7.5 0 0 1 46 20.5v23a7.5 7.5 0 0 1-7.5 7.5H32V13Z" fill="none" stroke="white" stroke-width="4" stroke-linejoin="round"/>
  <path d="M25 25h5M25 32h5M40 25l4 4-4 4M36 41h5" stroke="white" stroke-width="3" stroke-linecap="round"/>
  <circle cx="44" cy="29" r="2.5" fill="white"/>
  <circle cx="36" cy="41" r="2.5" fill="white"/>
</svg>
